# xmcd CD database file
#
# Track frame offsets:
#	150
#	22372
#	34584
#	51585
#	62994
#	82380
#	104171
#	117991
#	128953
#	146121
#	164372
#	182347
#
# Disc length: 2611 seconds
#
# Revision: 1
# Processed by: cddbd v1.5.2PL0 Copyright (c) Steve Scherf et al.
# Submitted via: CDex 1.99.1
#
DISCID=be0a310c
DTITLE=Aaaaiee Ia?aoeen - Ia?aoeen
DYEAR=2001
DGENRE=Blues Rock
TTITLE0=Noa?ua Ianie
TTITLE1=Oaeaaa
TTITLE2=Ionou Iia Noaiao Iaaii
TTITLE3=? Aai Oaaa Ciaou
TTITLE4=O Caeaiuo Eenouaa
TTITLE5=Aaoa? Ana Neeuiae
TTITLE6=Ae?c I A?aaa Iuyinoaa
TTITLE7=? ?yaii N Oiaie
TTITLE8=Cieu Ia?i?
TTITLE9=Neieuei Auei Caaca
TTITLE10=Iie A?oa Eo?oa Anao Ea?aao Ae?c
TTITLE11=Iineaaiyy-2
EXTD=YEAR: 2001
EXTT0=
EXTT1=
EXTT2=
EXTT3=
EXTT4=
EXTT5=
EXTT6=
EXTT7=
EXTT8=
EXTT9=
EXTT10=
EXTT11=
PLAYORDER=
